<svg xmlns="http://www.w3.org/2000/svg" version="1.1" xmlns:xlink="http://www.w3.org/1999/xlink" xmlns:svgjs="http://svgjs.com/svgjs" width="1200" height="560" preserveAspectRatio="none" viewBox="0 0 1200 560"><g mask="url(&quot;#SvgjsMask1006&quot;)" fill="none"><rect width="1200" height="560" x="0" y="0" fill="#0e2a47"></rect><path d="M-42.83 357.85L-42.83 357.85" stroke="#132e65" stroke-width="1.5"></path><path d="M-42.83 357.85L98.51 400.59" stroke="#132e65" stroke-width="1.5"></path><path d="M-42.83 357.85L37.54 488.93" stroke="#132e65" stroke-width="1.5"></path><path d="M-42.83 357.85L187.93 356" stroke="#132e65" stroke-width="1.5"></path><path d="M-42.83 357.85L195.34 526.08" stroke="#132e65" stroke-width="1.5"></path><path d="M-42.83 357.85L-50.71 699.61" stroke="#132e65" stroke-width="1.5"></path><path d="M-50.71 699.61L-50.71 699.61" stroke="#132e65" stroke-width="1.5"></path><path d="M-50.71 699.61L52.07 709.76" stroke="#132e65" stroke-width="1.5"></path><path d="M-50.71 699.61L37.54 488.93" stroke="#132e65" stroke-width="1.5"></path><path d="M-50.71 699.61L226.08 684.62" stroke="#132e65" stroke-width="1.5"></path><path d="M-50.71 699.61L195.34 526.08" stroke="#132e65" stroke-width="1.5"></path><path d="M98.51 400.59L98.51 400.59" stroke="#132e65" stroke-width="1.5"></path><path d="M98.51 400.59L187.93 356" stroke="#132e65" stroke-width="1.5"></path><path d="M98.51 400.59L37.54 488.93" stroke="#132e65" stroke-width="1.5"></path><path d="M98.51 400.59L195.34 526.08" stroke="#132e65" stroke-width="1.5"></path><path d="M37.54 488.93L37.54 488.93" stroke="#132e65" stroke-width="1.5"></path><path d="M37.54 488.93L195.34 526.08" stroke="#132e65" stroke-width="1.5"></path><path d="M37.54 488.93L187.93 356" stroke="#132e65" stroke-width="1.5"></path><path d="M37.54 488.93L52.07 709.76" stroke="#132e65" stroke-width="1.5"></path><path d="M52.07 709.76L52.07 709.76" stroke="#132e65" stroke-width="1.5"></path><path d="M52.07 709.76L226.08 684.62" stroke="#132e65" stroke-width="1.5"></path><path d="M52.07 709.76L195.34 526.08" stroke="#132e65" stroke-width="1.5"></path><path d="M52.07 709.76L98.51 400.59" stroke="#132e65" stroke-width="1.5"></path><path d="M52.07 709.76L369.57 648.44" stroke="#132e65" stroke-width="1.5"></path><path d="M187.93 356L187.93 356" stroke="#132e65" stroke-width="1.5"></path><path d="M187.93 356L195.34 526.08" stroke="#132e65" stroke-width="1.5"></path><path d="M187.93 356L385.78 350.41" stroke="#132e65" stroke-width="1.5"></path><path d="M187.93 356L349.81 508.83" stroke="#132e65" stroke-width="1.5"></path><path d="M195.34 526.08L195.34 526.08" stroke="#132e65" stroke-width="1.5"></path><path d="M195.34 526.08L349.81 508.83" stroke="#132e65" stroke-width="1.5"></path><path d="M226.08 684.62L226.08 684.62" stroke="#132e65" stroke-width="1.5"></path><path d="M226.08 684.62L369.57 648.44" stroke="#132e65" stroke-width="1.5"></path><path d="M226.08 684.62L195.34 526.08" stroke="#132e65" stroke-width="1.5"></path><path d="M385.78 350.41L385.78 350.41" stroke="#132e65" stroke-width="1.5"></path><path d="M385.78 350.41L500.64 359.3" stroke="#132e65" stroke-width="1.5"></path><path d="M385.78 350.41L349.81 508.83" stroke="#132e65" stroke-width="1.5"></path><path d="M385.78 350.41L513 539.6" stroke="#132e65" stroke-width="1.5"></path><path d="M349.81 508.83L349.81 508.83" stroke="#132e65" stroke-width="1.5"></path><path d="M349.81 508.83L369.57 648.44" stroke="#132e65" stroke-width="1.5"></path><path d="M349.81 508.83L513 539.6" stroke="#132e65" stroke-width="1.5"></path><path d="M369.57 648.44L369.57 648.44" stroke="#132e65" stroke-width="1.5"></path><path d="M500.64 359.3L500.64 359.3" stroke="#132e65" stroke-width="1.5"></path><path d="M500.64 359.3L513 539.6" stroke="#132e65" stroke-width="1.5"></path><path d="M500.64 359.3L684.27 375.31" stroke="#132e65" stroke-width="1.5"></path><path d="M500.64 359.3L649.41 238.59" stroke="#132e65" stroke-width="1.5"></path><path d="M500.64 359.3L349.81 508.83" stroke="#132e65" stroke-width="1.5"></path><path d="M500.64 359.3L681.24 546.6" stroke="#132e65" stroke-width="1.5"></path><path d="M513 539.6L513 539.6" stroke="#132e65" stroke-width="1.5"></path><path d="M513 539.6L526.2 696.88" stroke="#132e65" stroke-width="1.5"></path><path d="M513 539.6L681.24 546.6" stroke="#132e65" stroke-width="1.5"></path><path d="M513 539.6L369.57 648.44" stroke="#132e65" stroke-width="1.5"></path><path d="M526.2 696.88L526.2 696.88" stroke="#132e65" stroke-width="1.5"></path><path d="M526.2 696.88L369.57 648.44" stroke="#132e65" stroke-width="1.5"></path><path d="M526.2 696.88L685.03 645.99" stroke="#132e65" stroke-width="1.5"></path><path d="M526.2 696.88L681.24 546.6" stroke="#132e65" stroke-width="1.5"></path><path d="M526.2 696.88L349.81 508.83" stroke="#132e65" stroke-width="1.5"></path><path d="M526.2 696.88L226.08 684.62" stroke="#132e65" stroke-width="1.5"></path><path d="M649.41 238.59L649.41 238.59" stroke="#132e65" stroke-width="1.5"></path><path d="M649.41 238.59L684.27 375.31" stroke="#132e65" stroke-width="1.5"></path><path d="M684.27 375.31L684.27 375.31" stroke="#132e65" stroke-width="1.5"></path><path d="M684.27 375.31L801.14 410.09" stroke="#132e65" stroke-width="1.5"></path><path d="M684.27 375.31L681.24 546.6" stroke="#132e65" stroke-width="1.5"></path><path d="M684.27 375.31L808.8 540.95" stroke="#132e65" stroke-width="1.5"></path><path d="M684.27 375.31L513 539.6" stroke="#132e65" stroke-width="1.5"></path><path d="M681.24 546.6L681.24 546.6" stroke="#132e65" stroke-width="1.5"></path><path d="M681.24 546.6L685.03 645.99" stroke="#132e65" stroke-width="1.5"></path><path d="M681.24 546.6L808.8 540.95" stroke="#132e65" stroke-width="1.5"></path><path d="M681.24 546.6L801.14 410.09" stroke="#132e65" stroke-width="1.5"></path><path d="M685.03 645.99L685.03 645.99" stroke="#132e65" stroke-width="1.5"></path><path d="M685.03 645.99L808.8 540.95" stroke="#132e65" stroke-width="1.5"></path><path d="M685.03 645.99L856.87 667.88" stroke="#132e65" stroke-width="1.5"></path><path d="M806.24 -80.97L806.24 -80.97" stroke="#132e65" stroke-width="1.5"></path><path d="M806.24 -80.97L814.81 77.78" stroke="#132e65" stroke-width="1.5"></path><path d="M806.24 -80.97L971.21 -81.5" stroke="#132e65" stroke-width="1.5"></path><path d="M814.81 77.78L814.81 77.78" stroke="#132e65" stroke-width="1.5"></path><path d="M814.81 77.78L857.45 206.88" stroke="#132e65" stroke-width="1.5"></path><path d="M814.81 77.78L992.56 110.09" stroke="#132e65" stroke-width="1.5"></path><path d="M814.81 77.78L971.21 -81.5" stroke="#132e65" stroke-width="1.5"></path><path d="M814.81 77.78L649.41 238.59" stroke="#132e65" stroke-width="1.5"></path><path d="M814.81 77.78L976.09 252.55" stroke="#132e65" stroke-width="1.5"></path><path d="M857.45 206.88L857.45 206.88" stroke="#132e65" stroke-width="1.5"></path><path d="M857.45 206.88L976.09 252.55" stroke="#132e65" stroke-width="1.5"></path><path d="M857.45 206.88L992.56 110.09" stroke="#132e65" stroke-width="1.5"></path><path d="M857.45 206.88L989.38 356.79" stroke="#132e65" stroke-width="1.5"></path><path d="M801.14 410.09L801.14 410.09" stroke="#132e65" stroke-width="1.5"></path><path d="M801.14 410.09L808.8 540.95" stroke="#132e65" stroke-width="1.5"></path><path d="M801.14 410.09L989.38 356.79" stroke="#132e65" stroke-width="1.5"></path><path d="M801.14 410.09L944.99 551.38" stroke="#132e65" stroke-width="1.5"></path><path d="M808.8 540.95L808.8 540.95" stroke="#132e65" stroke-width="1.5"></path><path d="M808.8 540.95L856.87 667.88" stroke="#132e65" stroke-width="1.5"></path><path d="M856.87 667.88L856.87 667.88" stroke="#132e65" stroke-width="1.5"></path><path d="M971.21 -81.5L971.21 -81.5" stroke="#132e65" stroke-width="1.5"></path><path d="M992.56 110.09L992.56 110.09" stroke="#132e65" stroke-width="1.5"></path><path d="M992.56 110.09L1087.92 48.47" stroke="#132e65" stroke-width="1.5"></path><path d="M992.56 110.09L976.09 252.55" stroke="#132e65" stroke-width="1.5"></path><path d="M992.56 110.09L971.21 -81.5" stroke="#132e65" stroke-width="1.5"></path><path d="M976.09 252.55L976.09 252.55" stroke="#132e65" stroke-width="1.5"></path><path d="M976.09 252.55L989.38 356.79" stroke="#132e65" stroke-width="1.5"></path><path d="M989.38 356.79L989.38 356.79" stroke="#132e65" stroke-width="1.5"></path><path d="M989.38 356.79L1138.23 351.27" stroke="#132e65" stroke-width="1.5"></path><path d="M989.38 356.79L1136.14 240.1" stroke="#132e65" stroke-width="1.5"></path><path d="M989.38 356.79L944.99 551.38" stroke="#132e65" stroke-width="1.5"></path><path d="M944.99 551.38L944.99 551.38" stroke="#132e65" stroke-width="1.5"></path><path d="M944.99 551.38L808.8 540.95" stroke="#132e65" stroke-width="1.5"></path><path d="M944.99 551.38L856.87 667.88" stroke="#132e65" stroke-width="1.5"></path><path d="M944.99 551.38L1001.36 699.43" stroke="#132e65" stroke-width="1.5"></path><path d="M1001.36 699.43L1001.36 699.43" stroke="#132e65" stroke-width="1.5"></path><path d="M1001.36 699.43L856.87 667.88" stroke="#132e65" stroke-width="1.5"></path><path d="M1001.36 699.43L1113.43 525.48" stroke="#132e65" stroke-width="1.5"></path><path d="M1001.36 699.43L808.8 540.95" stroke="#132e65" stroke-width="1.5"></path><path d="M1001.36 699.43L1253.05 553.54" stroke="#132e65" stroke-width="1.5"></path><path d="M1001.36 699.43L1309.96 686.47" stroke="#132e65" stroke-width="1.5"></path><path d="M1138.09 -64.28L1138.09 -64.28" stroke="#132e65" stroke-width="1.5"></path><path d="M1138.09 -64.28L1087.92 48.47" stroke="#132e65" stroke-width="1.5"></path><path d="M1138.09 -64.28L1278.71 -69.51" stroke="#132e65" stroke-width="1.5"></path><path d="M1087.92 48.47L1087.92 48.47" stroke="#132e65" stroke-width="1.5"></path><path d="M1087.92 48.47L971.21 -81.5" stroke="#132e65" stroke-width="1.5"></path><path d="M1087.92 48.47L1273.69 89.08" stroke="#132e65" stroke-width="1.5"></path><path d="M1087.92 48.47L1136.14 240.1" stroke="#132e65" stroke-width="1.5"></path><path d="M1136.14 240.1L1136.14 240.1" stroke="#132e65" stroke-width="1.5"></path><path d="M1136.14 240.1L1138.23 351.27" stroke="#132e65" stroke-width="1.5"></path><path d="M1136.14 240.1L1288.42 251.77" stroke="#132e65" stroke-width="1.5"></path><path d="M1136.14 240.1L976.09 252.55" stroke="#132e65" stroke-width="1.5"></path><path d="M1138.23 351.27L1138.23 351.27" stroke="#132e65" stroke-width="1.5"></path><path d="M1113.43 525.48L1113.43 525.48" stroke="#132e65" stroke-width="1.5"></path><path d="M1113.43 525.48L1253.05 553.54" stroke="#132e65" stroke-width="1.5"></path><path d="M1113.43 525.48L944.99 551.38" stroke="#132e65" stroke-width="1.5"></path><path d="M1113.43 525.48L1138.23 351.27" stroke="#132e65" stroke-width="1.5"></path><path d="M1278.71 -69.51L1278.71 -69.51" stroke="#132e65" stroke-width="1.5"></path><path d="M1278.71 -69.51L1273.69 89.08" stroke="#132e65" stroke-width="1.5"></path><path d="M1273.69 89.08L1273.69 89.08" stroke="#132e65" stroke-width="1.5"></path><path d="M1273.69 89.08L1288.42 251.77" stroke="#132e65" stroke-width="1.5"></path><path d="M1273.69 89.08L1136.14 240.1" stroke="#132e65" stroke-width="1.5"></path><path d="M1273.69 89.08L1138.09 -64.28" stroke="#132e65" stroke-width="1.5"></path><path d="M1273.69 89.08L992.56 110.09" stroke="#132e65" stroke-width="1.5"></path><path d="M1288.42 251.77L1288.42 251.77" stroke="#132e65" stroke-width="1.5"></path><path d="M1288.42 251.77L1138.23 351.27" stroke="#132e65" stroke-width="1.5"></path><path d="M1253.05 553.54L1253.05 553.54" stroke="#132e65" stroke-width="1.5"></path><path d="M1253.05 553.54L1309.96 686.47" stroke="#132e65" stroke-width="1.5"></path><path d="M1309.96 686.47L1309.96 686.47" stroke="#132e65" stroke-width="1.5"></path><path d="M1309.96 686.47L1113.43 525.48" stroke="#132e65" stroke-width="1.5"></path><path d="M1309.96 686.47L1138.23 351.27" stroke="#132e65" stroke-width="1.5"></path><path d="M1309.96 686.47L944.99 551.38" stroke="#132e65" stroke-width="1.5"></path><circle r="5" cx="-42.83" cy="357.85" fill="#132e65"></circle><circle r="5" cx="-50.71" cy="699.61" fill="#132e65"></circle><circle r="5" cx="98.51" cy="400.59" fill="#132e65"></circle><circle r="5" cx="37.54" cy="488.93" fill="#132e65"></circle><circle r="5" cx="52.07" cy="709.76" fill="#132e65"></circle><circle r="5" cx="187.93" cy="356" fill="#132e65"></circle><circle r="5" cx="195.34" cy="526.08" fill="#132e65"></circle><circle r="5" cx="226.08" cy="684.62" fill="#132e65"></circle><circle r="5" cx="385.78" cy="350.41" fill="#132e65"></circle><circle r="5" cx="349.81" cy="508.83" fill="#132e65"></circle><circle r="5" cx="369.57" cy="648.44" fill="#132e65"></circle><circle r="5" cx="500.64" cy="359.3" fill="#132e65"></circle><circle r="5" cx="513" cy="539.6" fill="#132e65"></circle><circle r="5" cx="526.2" cy="696.88" fill="#132e65"></circle><circle r="5" cx="649.41" cy="238.59" fill="#132e65"></circle><circle r="5" cx="684.27" cy="375.31" fill="#132e65"></circle><circle r="5" cx="681.24" cy="546.6" fill="#132e65"></circle><circle r="5" cx="685.03" cy="645.99" fill="#132e65"></circle><circle r="5" cx="806.24" cy="-80.97" fill="#132e65"></circle><circle r="5" cx="814.81" cy="77.78" fill="#132e65"></circle><circle r="5" cx="857.45" cy="206.88" fill="#132e65"></circle><circle r="5" cx="801.14" cy="410.09" fill="#132e65"></circle><circle r="5" cx="808.8" cy="540.95" fill="#132e65"></circle><circle r="5" cx="856.87" cy="667.88" fill="#132e65"></circle><circle r="5" cx="971.21" cy="-81.5" fill="#132e65"></circle><circle r="5" cx="992.56" cy="110.09" fill="#132e65"></circle><circle r="5" cx="976.09" cy="252.55" fill="#132e65"></circle><circle r="5" cx="989.38" cy="356.79" fill="#132e65"></circle><circle r="5" cx="944.99" cy="551.38" fill="#132e65"></circle><circle r="5" cx="1001.36" cy="699.43" fill="#132e65"></circle><circle r="5" cx="1138.09" cy="-64.28" fill="#132e65"></circle><circle r="5" cx="1087.92" cy="48.47" fill="#132e65"></circle><circle r="5" cx="1136.14" cy="240.1" fill="#132e65"></circle><circle r="5" cx="1138.23" cy="351.27" fill="#132e65"></circle><circle r="5" cx="1113.43" cy="525.48" fill="#132e65"></circle><circle r="5" cx="1278.71" cy="-69.51" fill="#132e65"></circle><circle r="5" cx="1273.69" cy="89.08" fill="#132e65"></circle><circle r="5" cx="1288.42" cy="251.77" fill="#132e65"></circle><circle r="5" cx="1253.05" cy="553.54" fill="#132e65"></circle><circle r="5" cx="1309.96" cy="686.47" fill="#132e65"></circle><path d="M207.55 524.22L207.55 524.22" stroke="hsl(228.5, 77.2%, 51.5%)" stroke-width="1.5"></path><path d="M207.55 524.22L75.7 525.85" stroke="hsl(228.5, 77.2%, 51.5%)" stroke-width="1.5"></path><path d="M207.55 524.22L206.74 691.43" stroke="hsl(228.5, 77.2%, 51.5%)" stroke-width="1.5"></path><path d="M207.55 524.22L96.72 674.41" stroke="hsl(228.5, 77.2%, 51.5%)" stroke-width="1.5"></path><path d="M207.55 524.22L407.08 491.07" stroke="hsl(228.5, 77.2%, 51.5%)" stroke-width="1.5"></path><path d="M207.55 524.22L367.53 693.44" stroke="hsl(228.5, 77.2%, 51.5%)" stroke-width="1.5"></path><path d="M207.55 524.22L-79 515.41" stroke="hsl(228.5, 77.2%, 51.5%)" stroke-width="1.5"></path><path d="M1148.68 225.99L1148.68 225.99" stroke="hsl(228.5, 77.2%, 51.5%)" stroke-width="1.5"></path><path d="M1148.68 225.99L1157.47 362.34" stroke="hsl(228.5, 77.2%, 51.5%)" stroke-width="1.5"></path><path d="M1148.68 225.99L1290.67 220" stroke="hsl(228.5, 77.2%, 51.5%)" stroke-width="1.5"></path><path d="M1148.68 225.99L1005.76 208.01" stroke="hsl(228.5, 77.2%, 51.5%)" stroke-width="1.5"></path><path d="M1148.68 225.99L1241.22 106.97" stroke="hsl(228.5, 77.2%, 51.5%)" stroke-width="1.5"></path><path d="M1290.67 220L1290.67 220" stroke="hsl(228.5, 77.2%, 51.5%)" stroke-width="1.5"></path><path d="M1290.67 220L1241.22 106.97" stroke="hsl(228.5, 77.2%, 51.5%)" stroke-width="1.5"></path><path d="M1290.67 220L1157.47 362.34" stroke="hsl(228.5, 77.2%, 51.5%)" stroke-width="1.5"></path><path d="M1290.67 220L1107.5 72.62" stroke="hsl(228.5, 77.2%, 51.5%)" stroke-width="1.5"></path><path d="M1290.67 220L1005.76 208.01" stroke="hsl(228.5, 77.2%, 51.5%)" stroke-width="1.5"></path><path d="M1290.67 220L1295.65 -90.28" stroke="hsl(228.5, 77.2%, 51.5%)" stroke-width="1.5"></path><path d="M-79 515.41L-79 515.41" stroke="hsl(228.5, 77.2%, 51.5%)" stroke-width="1.5"></path><path d="M-79 515.41L-50.43 657.55" stroke="hsl(228.5, 77.2%, 51.5%)" stroke-width="1.5"></path><path d="M-79 515.41L75.7 525.85" stroke="hsl(228.5, 77.2%, 51.5%)" stroke-width="1.5"></path><path d="M-79 515.41L96.72 674.41" stroke="hsl(228.5, 77.2%, 51.5%)" stroke-width="1.5"></path><path d="M-50.43 657.55L-50.43 657.55" stroke="hsl(228.5, 77.2%, 51.5%)" stroke-width="1.5"></path><path d="M-50.43 657.55L96.72 674.41" stroke="hsl(228.5, 77.2%, 51.5%)" stroke-width="1.5"></path><path d="M75.7 525.85L75.7 525.85" stroke="hsl(228.5, 77.2%, 51.5%)" stroke-width="1.5"></path><path d="M75.7 525.85L96.72 674.41" stroke="hsl(228.5, 77.2%, 51.5%)" stroke-width="1.5"></path><path d="M96.72 674.41L96.72 674.41" stroke="hsl(228.5, 77.2%, 51.5%)" stroke-width="1.5"></path><path d="M96.72 674.41L206.74 691.43" stroke="hsl(228.5, 77.2%, 51.5%)" stroke-width="1.5"></path><path d="M206.74 691.43L206.74 691.43" stroke="hsl(228.5, 77.2%, 51.5%)" stroke-width="1.5"></path><path d="M206.74 691.43L367.53 693.44" stroke="hsl(228.5, 77.2%, 51.5%)" stroke-width="1.5"></path><path d="M407.08 491.07L407.08 491.07" stroke="hsl(228.5, 77.2%, 51.5%)" stroke-width="1.5"></path><path d="M407.08 491.07L519.4 521.53" stroke="hsl(228.5, 77.2%, 51.5%)" stroke-width="1.5"></path><path d="M407.08 491.07L367.53 693.44" stroke="hsl(228.5, 77.2%, 51.5%)" stroke-width="1.5"></path><path d="M407.08 491.07L503.93 691.55" stroke="hsl(228.5, 77.2%, 51.5%)" stroke-width="1.5"></path><path d="M407.08 491.07L206.74 691.43" stroke="hsl(228.5, 77.2%, 51.5%)" stroke-width="1.5"></path><path d="M407.08 491.07L697.91 488.53" stroke="hsl(228.5, 77.2%, 51.5%)" stroke-width="1.5"></path><path d="M367.53 693.44L367.53 693.44" stroke="hsl(228.5, 77.2%, 51.5%)" stroke-width="1.5"></path><path d="M367.53 693.44L503.93 691.55" stroke="hsl(228.5, 77.2%, 51.5%)" stroke-width="1.5"></path><path d="M519.4 521.53L519.4 521.53" stroke="hsl(228.5, 77.2%, 51.5%)" stroke-width="1.5"></path><path d="M519.4 521.53L503.93 691.55" stroke="hsl(228.5, 77.2%, 51.5%)" stroke-width="1.5"></path><path d="M519.4 521.53L697.91 488.53" stroke="hsl(228.5, 77.2%, 51.5%)" stroke-width="1.5"></path><path d="M519.4 521.53L367.53 693.44" stroke="hsl(228.5, 77.2%, 51.5%)" stroke-width="1.5"></path><path d="M519.4 521.53L675.29 694.18" stroke="hsl(228.5, 77.2%, 51.5%)" stroke-width="1.5"></path><path d="M519.4 521.53L207.55 524.22" stroke="hsl(228.5, 77.2%, 51.5%)" stroke-width="1.5"></path><path d="M503.93 691.55L503.93 691.55" stroke="hsl(228.5, 77.2%, 51.5%)" stroke-width="1.5"></path><path d="M503.93 691.55L675.29 694.18" stroke="hsl(228.5, 77.2%, 51.5%)" stroke-width="1.5"></path><path d="M503.93 691.55L697.91 488.53" stroke="hsl(228.5, 77.2%, 51.5%)" stroke-width="1.5"></path><path d="M503.93 691.55L206.74 691.43" stroke="hsl(228.5, 77.2%, 51.5%)" stroke-width="1.5"></path><path d="M697.91 488.53L697.91 488.53" stroke="hsl(228.5, 77.2%, 51.5%)" stroke-width="1.5"></path><path d="M697.91 488.53L840.64 547.72" stroke="hsl(228.5, 77.2%, 51.5%)" stroke-width="1.5"></path><path d="M697.91 488.53L810.67 360.89" stroke="hsl(228.5, 77.2%, 51.5%)" stroke-width="1.5"></path><path d="M675.29 694.18L675.29 694.18" stroke="hsl(228.5, 77.2%, 51.5%)" stroke-width="1.5"></path><path d="M675.29 694.18L846.61 676.58" stroke="hsl(228.5, 77.2%, 51.5%)" stroke-width="1.5"></path><path d="M675.29 694.18L697.91 488.53" stroke="hsl(228.5, 77.2%, 51.5%)" stroke-width="1.5"></path><path d="M675.29 694.18L840.64 547.72" stroke="hsl(228.5, 77.2%, 51.5%)" stroke-width="1.5"></path><path d="M850.92 216.73L850.92 216.73" stroke="hsl(228.5, 77.2%, 51.5%)" stroke-width="1.5"></path><path d="M850.92 216.73L810.67 360.89" stroke="hsl(228.5, 77.2%, 51.5%)" stroke-width="1.5"></path><path d="M850.92 216.73L1005.76 208.01" stroke="hsl(228.5, 77.2%, 51.5%)" stroke-width="1.5"></path><path d="M850.92 216.73L985.97 90.57" stroke="hsl(228.5, 77.2%, 51.5%)" stroke-width="1.5"></path><path d="M850.92 216.73L965.44 -41.26" stroke="hsl(228.5, 77.2%, 51.5%)" stroke-width="1.5"></path><path d="M850.92 216.73L1107.5 72.62" stroke="hsl(228.5, 77.2%, 51.5%)" stroke-width="1.5"></path><path d="M850.92 216.73L1148.68 225.99" stroke="hsl(228.5, 77.2%, 51.5%)" stroke-width="1.5"></path><path d="M810.67 360.89L810.67 360.89" stroke="hsl(228.5, 77.2%, 51.5%)" stroke-width="1.5"></path><path d="M810.67 360.89L840.64 547.72" stroke="hsl(228.5, 77.2%, 51.5%)" stroke-width="1.5"></path><path d="M810.67 360.89L962.75 510.09" stroke="hsl(228.5, 77.2%, 51.5%)" stroke-width="1.5"></path><path d="M840.64 547.72L840.64 547.72" stroke="hsl(228.5, 77.2%, 51.5%)" stroke-width="1.5"></path><path d="M840.64 547.72L962.75 510.09" stroke="hsl(228.5, 77.2%, 51.5%)" stroke-width="1.5"></path><path d="M840.64 547.72L846.61 676.58" stroke="hsl(228.5, 77.2%, 51.5%)" stroke-width="1.5"></path><path d="M846.61 676.58L846.61 676.58" stroke="hsl(228.5, 77.2%, 51.5%)" stroke-width="1.5"></path><path d="M846.61 676.58L1001.67 702.83" stroke="hsl(228.5, 77.2%, 51.5%)" stroke-width="1.5"></path><path d="M965.44 -41.26L965.44 -41.26" stroke="hsl(228.5, 77.2%, 51.5%)" stroke-width="1.5"></path><path d="M965.44 -41.26L985.97 90.57" stroke="hsl(228.5, 77.2%, 51.5%)" stroke-width="1.5"></path><path d="M965.44 -41.26L1107.5 72.62" stroke="hsl(228.5, 77.2%, 51.5%)" stroke-width="1.5"></path><path d="M965.44 -41.26L1154.05 -78.36" stroke="hsl(228.5, 77.2%, 51.5%)" stroke-width="1.5"></path><path d="M965.44 -41.26L1005.76 208.01" stroke="hsl(228.5, 77.2%, 51.5%)" stroke-width="1.5"></path><path d="M985.97 90.57L985.97 90.57" stroke="hsl(228.5, 77.2%, 51.5%)" stroke-width="1.5"></path><path d="M985.97 90.57L1005.76 208.01" stroke="hsl(228.5, 77.2%, 51.5%)" stroke-width="1.5"></path><path d="M985.97 90.57L1107.5 72.62" stroke="hsl(228.5, 77.2%, 51.5%)" stroke-width="1.5"></path><path d="M1005.76 208.01L1005.76 208.01" stroke="hsl(228.5, 77.2%, 51.5%)" stroke-width="1.5"></path><path d="M962.75 510.09L962.75 510.09" stroke="hsl(228.5, 77.2%, 51.5%)" stroke-width="1.5"></path><path d="M962.75 510.09L1104.55 539.11" stroke="hsl(228.5, 77.2%, 51.5%)" stroke-width="1.5"></path><path d="M962.75 510.09L1001.67 702.83" stroke="hsl(228.5, 77.2%, 51.5%)" stroke-width="1.5"></path><path d="M962.75 510.09L846.61 676.58" stroke="hsl(228.5, 77.2%, 51.5%)" stroke-width="1.5"></path><path d="M1001.67 702.83L1001.67 702.83" stroke="hsl(228.5, 77.2%, 51.5%)" stroke-width="1.5"></path><path d="M1001.67 702.83L1125.01 668.01" stroke="hsl(228.5, 77.2%, 51.5%)" stroke-width="1.5"></path><path d="M1001.67 702.83L1104.55 539.11" stroke="hsl(228.5, 77.2%, 51.5%)" stroke-width="1.5"></path><path d="M1154.05 -78.36L1154.05 -78.36" stroke="hsl(228.5, 77.2%, 51.5%)" stroke-width="1.5"></path><path d="M1154.05 -78.36L1295.65 -90.28" stroke="hsl(228.5, 77.2%, 51.5%)" stroke-width="1.5"></path><path d="M1154.05 -78.36L1107.5 72.62" stroke="hsl(228.5, 77.2%, 51.5%)" stroke-width="1.5"></path><path d="M1107.5 72.62L1107.5 72.62" stroke="hsl(228.5, 77.2%, 51.5%)" stroke-width="1.5"></path><path d="M1107.5 72.62L1241.22 106.97" stroke="hsl(228.5, 77.2%, 51.5%)" stroke-width="1.5"></path><path d="M1107.5 72.62L1148.68 225.99" stroke="hsl(228.5, 77.2%, 51.5%)" stroke-width="1.5"></path><path d="M1157.47 362.34L1157.47 362.34" stroke="hsl(228.5, 77.2%, 51.5%)" stroke-width="1.5"></path><path d="M1157.47 362.34L1104.55 539.11" stroke="hsl(228.5, 77.2%, 51.5%)" stroke-width="1.5"></path><path d="M1104.55 539.11L1104.55 539.11" stroke="hsl(228.5, 77.2%, 51.5%)" stroke-width="1.5"></path><path d="M1104.55 539.11L1125.01 668.01" stroke="hsl(228.5, 77.2%, 51.5%)" stroke-width="1.5"></path><path d="M1104.55 539.11L1307.62 543.83" stroke="hsl(228.5, 77.2%, 51.5%)" stroke-width="1.5"></path><path d="M1104.55 539.11L1288.36 711.86" stroke="hsl(228.5, 77.2%, 51.5%)" stroke-width="1.5"></path><path d="M1125.01 668.01L1125.01 668.01" stroke="hsl(228.5, 77.2%, 51.5%)" stroke-width="1.5"></path><path d="M1125.01 668.01L1288.36 711.86" stroke="hsl(228.5, 77.2%, 51.5%)" stroke-width="1.5"></path><path d="M1125.01 668.01L1307.62 543.83" stroke="hsl(228.5, 77.2%, 51.5%)" stroke-width="1.5"></path><path d="M1295.65 -90.28L1295.65 -90.28" stroke="hsl(228.5, 77.2%, 51.5%)" stroke-width="1.5"></path><path d="M1295.65 -90.28L1241.22 106.97" stroke="hsl(228.5, 77.2%, 51.5%)" stroke-width="1.5"></path><path d="M1295.65 -90.28L1107.5 72.62" stroke="hsl(228.5, 77.2%, 51.5%)" stroke-width="1.5"></path><path d="M1241.22 106.97L1241.22 106.97" stroke="hsl(228.5, 77.2%, 51.5%)" stroke-width="1.5"></path><path d="M1307.62 543.83L1307.62 543.83" stroke="hsl(228.5, 77.2%, 51.5%)" stroke-width="1.5"></path><path d="M1307.62 543.83L1288.36 711.86" stroke="hsl(228.5, 77.2%, 51.5%)" stroke-width="1.5"></path><path d="M1288.36 711.86L1288.36 711.86" stroke="hsl(228.5, 77.2%, 51.5%)" stroke-width="1.5"></path><path d="M1288.36 711.86L1001.67 702.83" stroke="hsl(228.5, 77.2%, 51.5%)" stroke-width="1.5"></path><path d="M1288.36 711.86L1157.47 362.34" stroke="hsl(228.5, 77.2%, 51.5%)" stroke-width="1.5"></path><path d="M1288.36 711.86L962.75 510.09" stroke="hsl(228.5, 77.2%, 51.5%)" stroke-width="1.5"></path><circle r="25" cx="207.55" cy="524.22" fill="url(#SvgjsRadialGradient1007)"></circle><circle r="25" cx="1148.68" cy="225.99" fill="url(#SvgjsRadialGradient1007)"></circle><circle r="25" cx="1290.67" cy="220" fill="url(#SvgjsRadialGradient1007)"></circle><circle r="5" cx="-79" cy="515.41" fill="#8b9ad9"></circle><circle r="5" cx="-50.43" cy="657.55" fill="#8b9ad9"></circle><circle r="5" cx="75.7" cy="525.85" fill="#8b9ad9"></circle><circle r="5" cx="96.72" cy="674.41" fill="#8b9ad9"></circle><circle r="5" cx="206.74" cy="691.43" fill="#8b9ad9"></circle><circle r="5" cx="407.08" cy="491.07" fill="#8b9ad9"></circle><circle r="5" cx="367.53" cy="693.44" fill="#8b9ad9"></circle><circle r="5" cx="519.4" cy="521.53" fill="#8b9ad9"></circle><circle r="5" cx="503.93" cy="691.55" fill="#8b9ad9"></circle><circle r="5" cx="697.91" cy="488.53" fill="#8b9ad9"></circle><circle r="5" cx="675.29" cy="694.18" fill="#8b9ad9"></circle><circle r="5" cx="850.92" cy="216.73" fill="#8b9ad9"></circle><circle r="5" cx="810.67" cy="360.89" fill="#8b9ad9"></circle><circle r="5" cx="840.64" cy="547.72" fill="#8b9ad9"></circle><circle r="5" cx="846.61" cy="676.58" fill="#8b9ad9"></circle><circle r="5" cx="965.44" cy="-41.26" fill="#8b9ad9"></circle><circle r="5" cx="985.97" cy="90.57" fill="#8b9ad9"></circle><circle r="5" cx="1005.76" cy="208.01" fill="#8b9ad9"></circle><circle r="5" cx="962.75" cy="510.09" fill="#8b9ad9"></circle><circle r="5" cx="1001.67" cy="702.83" fill="#8b9ad9"></circle><circle r="5" cx="1154.05" cy="-78.36" fill="#8b9ad9"></circle><circle r="5" cx="1107.5" cy="72.62" fill="#8b9ad9"></circle><circle r="5" cx="1157.47" cy="362.34" fill="#8b9ad9"></circle><circle r="5" cx="1104.55" cy="539.11" fill="#8b9ad9"></circle><circle r="5" cx="1125.01" cy="668.01" fill="#8b9ad9"></circle><circle r="5" cx="1295.65" cy="-90.28" fill="#8b9ad9"></circle><circle r="5" cx="1241.22" cy="106.97" fill="#8b9ad9"></circle><circle r="5" cx="1307.62" cy="543.83" fill="#8b9ad9"></circle><circle r="5" cx="1288.36" cy="711.86" fill="#8b9ad9"></circle></g><defs><mask id="SvgjsMask1006"><rect width="1200" height="560" fill="#ffffff"></rect></mask><radialGradient id="SvgjsRadialGradient1007"><stop stop-color="#ffffff" offset="0.1"></stop><stop stop-color="#1735b3" offset="0.2"></stop><stop stop-color="rgba(23, 53, 179, 0)" offset="1"></stop></radialGradient></defs></svg>